<svg width="36" height="36" viewBox="0 0 36 36" fill="none" xmlns="http://www.w3.org/2000/svg">
<path d="M12.2479 24H10.3679V12.48H12.2479V24Z" fill="#5D6D86"/>
<path d="M24.5133 12.48V24H23.5613C23.4173 24 23.2946 23.976 23.1933 23.928C23.092 23.8747 22.996 23.7893 22.9053 23.672L16.5773 15.544C16.5933 15.6987 16.604 15.8533 16.6093 16.008C16.62 16.1573 16.6253 16.296 16.6253 16.424V24H14.9773V12.48H15.9533C16.0333 12.48 16.1 12.4853 16.1533 12.496C16.212 12.5013 16.2653 12.5147 16.3133 12.536C16.3613 12.5573 16.4066 12.5893 16.4493 12.632C16.492 12.6747 16.5373 12.728 16.5853 12.792L22.9213 20.928C22.9053 20.7627 22.892 20.6 22.8813 20.44C22.876 20.28 22.8733 20.1307 22.8733 19.992V12.48H24.5133Z" fill="#5D6D86"/>
<rect x="0.5" y="0.5" width="35" height="35" rx="3.5" stroke="#79879C" stroke-opacity="0.18"/>
</svg>
