<svg width="36" height="36" viewBox="0 0 36 36" fill="none" xmlns="http://www.w3.org/2000/svg">
<path d="M18.6239 12.48V24H16.9759V16.104C16.9759 15.976 16.9786 15.8373 16.9839 15.688C16.9946 15.5333 17.0079 15.3787 17.0239 15.224L13.3199 22.064C13.1759 22.3467 12.9546 22.488 12.6559 22.488H12.3919C12.0879 22.488 11.8666 22.3467 11.7279 22.064L7.96792 15.208C7.98392 15.3627 7.99459 15.5173 7.99992 15.672C8.01059 15.8267 8.01592 15.9707 8.01592 16.104V24H6.36792V12.48H7.76792C7.93325 12.48 8.06125 12.496 8.15192 12.528C8.24259 12.5547 8.32525 12.6427 8.39992 12.792L12.0959 19.488C12.1759 19.6427 12.2506 19.8027 12.3199 19.968C12.3946 20.128 12.4613 20.2933 12.5199 20.464C12.5839 20.2933 12.6506 20.1253 12.7199 19.96C12.7946 19.7893 12.8719 19.6267 12.9519 19.472L16.5919 12.792C16.6666 12.6427 16.7493 12.5547 16.8399 12.528C16.9306 12.496 17.0586 12.48 17.2239 12.48H18.6239Z" fill="#5D6D86"/>
<path d="M26.0083 19.488V24H24.1443V19.488L19.9363 12.48H21.5763C21.7416 12.48 21.8723 12.52 21.9683 12.6C22.0643 12.68 22.1443 12.7813 22.2083 12.904L24.5683 17.032C24.675 17.24 24.771 17.4373 24.8563 17.624C24.947 17.8107 25.027 17.9947 25.0963 18.176C25.155 17.9893 25.227 17.8053 25.3123 17.624C25.3976 17.4373 25.4936 17.24 25.6003 17.032L27.9443 12.904C27.9976 12.7973 28.075 12.7013 28.1763 12.616C28.2776 12.5253 28.4083 12.48 28.5683 12.48H30.2163L26.0083 19.488Z" fill="#5D6D86"/>
<rect x="0.5" y="0.5" width="35" height="35" rx="3.5" stroke="#79879C" stroke-opacity="0.18"/>
</svg>
